<?xml version="1.0" encoding="UTF-8"?>
<svg id="Layer_1" data-name="Layer 1" xmlns="http://www.w3.org/2000/svg" viewBox="0 0 161.2 62.87">
  <defs>
    <style>
      .cls-1 {
        fill: #fff;
      }

      .cls-2 {
        fill: #e5a72b;
      }
    </style>
  </defs>
  <rect class="cls-2" width="161.2" height="63.29"/>
  <rect class="cls-1" x="27.06" y="19.03" width="28.2" height="5.5"/>
  <rect class="cls-1" x="33.36" y="29.46" width="21.9" height="5.5"/>
  <rect class="cls-1" x="105.71" y="19.03" width="16.97" height="5.5"/>
  <rect class="cls-1" x="105.71" y="28.89" width="40.59" height="5.5"/>
  <rect class="cls-1" x="105.71" y="39.89" width="30.5" height="5.5"/>
  <rect class="cls-1" x="15.96" y="39.89" width="39.3" height="5.5"/>
  <path class="cls-1" d="M66.04,37.68l-2.98,4.36h17.54s11.2-1.45,11.2-12.57-10.47-13.41-10.47-13.41c0,0-10.09-2.98-16.82,7.26,0,0-4.82,7.87,1.53,14.37h0Z"/>
  <path class="cls-1" d="M74.52,44.79s12.31,.46,16.28-5.96c3.97-6.42,2.14-16.13,2.14-16.13,0,0,9.86,8.94,2.83,21.25l3.9,3.52h-16.51s-5.04,.38-8.64-2.68h0Z"/>
  <rect class="cls-2" x="70.72" y="21.78" width="14.79" height="1.55"/>
  <rect class="cls-2" x="70.72" y="26.19" width="14.79" height="1.55"/>
  <rect class="cls-2" x="70.72" y="29.92" width="14.79" height="1.55"/>
</svg>